<svg xmlns="http://www.w3.org/2000/svg" viewBox="0 0 1234.02 993.37"><defs><style>.cls-1{fill:#e8665d;}.cls-2{fill:#f3a496;}.cls-3{fill:#a8bab9;}.cls-4{fill:#74a089;}.cls-5{fill:#f7dcd5;}.cls-6{fill:#7e9694;}.cls-7{fill:#f8f7ff;}.cls-8{fill:#fddda0;opacity:0.31;}</style></defs><g id="back"><path class="cls-1" d="M996.5,557.5c41.66,60,66,122.48,70,188l-39,37-127-155Z" transform="translate(-2 -2)"/><path class="cls-1" d="M1111.5,802.5c-3.14,16.71-17.71,59-68.43,156.32a13.55,13.55,0,0,0,3.24,16.56c11.88,10.13,32.58,19.18,47.25,20a8.11,8.11,0,0,0,7.78-4.75c4.56-10-3.2-14.76-13.19-27a7.09,7.09,0,0,1,1.19-10.14c27.31-20.89,54.25-68.68,81.16-118Z" transform="translate(-2 -2)"/><path class="cls-2" d="M1117.8,989c13.52,3.44,32.38,4.86,50.72,4.45a10,10,0,0,0,6-17.74,80.07,80.07,0,0,0-17.76-10.56,18.51,18.51,0,0,1-8.69-25.5c33.81-64.29,90.94-161,31.31-195.28a63.93,63.93,0,0,0-29.69-8.23l-79.85-2.77a54.93,54.93,0,0,1-53-56.28l3.4-134.48a34.13,34.13,0,0,1,5-16.93l6.24-10.2h0a17.9,17.9,0,0,0,24.34-5.79h0a129.3,129.3,0,0,0,18.63-50.37l.26-1.76a20.89,20.89,0,0,0-7.88-19.55h0a31.7,31.7,0,0,0-46.71,7.15h0a174.37,174.37,0,0,0-17.41,34.59L997.1,495a52.71,52.71,0,0,1-27.5,29.62l-42.28,19.34A349.25,349.25,0,0,0,816.92,623c-108.14,116-90.7,256.68-.42,298.48,89.41,26.82,130-4,289.84-89.32a15.19,15.19,0,0,1,9.83-1.69c23.24,4.25,12.63,58.62-8.37,141.54A14,14,0,0,0,1117.8,989Z" transform="translate(-2 -2)"/><polygon class="cls-3" points="1063.46 711.46 1131.15 711.46 1168.5 770.5 1044.54 770.5 1063.46 711.46"/></g><g id="touchpad"><path class="cls-4" d="M1066.17,727.84,1061.82,742a5.84,5.84,0,0,0,5.58,7.55h16.52a5.84,5.84,0,0,0,5.8-6.53l-1.63-13.58a5.85,5.85,0,0,0-5.5-5.14l-10.56-.52A5.82,5.82,0,0,0,1066.17,727.84Z" transform="translate(-2 -2)"/></g><g id="arm"><path class="cls-5" d="M819.5,598.5C757.9,666.89,753,736.18,800.8,806.31a69.58,69.58,0,0,0,72.08,29.11C925,824.08,974.36,761,1073.36,735.05a16.18,16.18,0,0,0,11.3-10.17c5.81-16.83-27-19.89-151,.4a19.73,19.73,0,0,1-22.75-21.95C927.05,576.44,932.23,479.32,819.5,598.5Z" transform="translate(-2 -2)"/></g><g id="bottom_laptop" data-name="bottom laptop"><path class="cls-6" d="M1046.54,772.5v2.23a7.77,7.77,0,0,0,7.77,7.77h108.42a7.77,7.77,0,0,0,7.77-7.77V772.5Z" transform="translate(-2 -2)"/></g><g id="screen2"><polygon class="cls-3" points="1130.93 710.92 1168.5 649.5 1228.5 667.5 1168.5 770.5 1130.93 710.92"/></g><g id="frame"><path class="cls-6" d="M1170.68,771.92l1.91,1.14a7.76,7.76,0,0,0,10.65-2.68l51.68-86.56a7.78,7.78,0,0,0-.3-8.44l-4.12-5.88Z" transform="translate(-2 -2)"/></g><g id="screen"><path class="cls-7" d="M1140.32,709.54l27.86-45.28a5.38,5.38,0,0,1,6.46-2.21l37.86,14.2a5.36,5.36,0,0,1,2.73,7.76l-40.43,68.23a5.37,5.37,0,0,1-9,.29l-25.29-37.16A5.36,5.36,0,0,1,1140.32,709.54Z" transform="translate(-2 -2)"/></g><g id="light"><path class="cls-8" d="M1217.14,673.25,813.55,2H2L1162.85,755.71a9.31,9.31,0,0,0,13.09-3.07l41.24-69.87A9.29,9.29,0,0,0,1217.14,673.25Z" transform="translate(-2 -2)"/></g></svg>